<?xml version="1.0" encoding="UTF-8"?>
<svg xmlns="http://www.w3.org/2000/svg" xmlns:xlink="http://www.w3.org/1999/xlink" width="58pt" height="58pt" viewBox="0 0 58 58" version="1.1">
<g id="surface1">
<path style=" stroke:none;fill-rule:nonzero;fill:rgb(0%,0%,0%);fill-opacity:1;" d="M 14.78125 19.453125 L 9.265625 22.636719 L 9.265625 35.363281 L 14.78125 38.546875 L 20.257812 41.769531 L 25.738281 38.585938 L 31.214844 35.445312 L 31.417969 30.328125 L 31.617188 25.253906 L 34.558594 23.480469 C 36.210938 22.515625 37.578125 21.75 37.660156 21.75 C 37.742188 21.75 39.109375 22.515625 40.761719 23.480469 L 43.703125 25.253906 L 43.820312 28.917969 L 43.941406 32.585938 L 42.414062 33.550781 C 41.566406 34.074219 40.15625 34.921875 39.230469 35.402344 L 37.578125 36.332031 L 35.929688 35.285156 C 35 34.71875 34.15625 34.234375 34.035156 34.234375 C 33.914062 34.234375 33.832031 34.839844 33.832031 35.566406 C 33.832031 36.613281 33.589844 37.015625 32.828125 37.378906 C 32.261719 37.621094 31.820312 37.980469 31.820312 38.144531 C 31.820312 38.34375 33.148438 39.191406 34.757812 40.078125 L 37.660156 41.726562 L 43.21875 38.546875 L 48.734375 35.363281 L 48.734375 22.636719 L 43.21875 19.453125 L 37.660156 16.273438 L 32.222656 19.375 L 26.785156 22.515625 L 26.582031 27.628906 L 26.382812 32.746094 L 23.402344 34.519531 L 20.378906 36.289062 L 18.566406 35.242188 C 17.5625 34.679688 16.109375 33.914062 15.425781 33.550781 L 14.097656 32.867188 L 14.097656 25.171875 L 17.199219 23.441406 L 20.257812 21.75 L 22.070312 22.757812 C 23.039062 23.320312 23.925781 23.765625 24.003906 23.765625 C 24.085938 23.765625 24.167969 23.160156 24.167969 22.433594 C 24.167969 21.429688 24.410156 20.945312 25.171875 20.542969 C 25.695312 20.257812 26.058594 19.898438 25.980469 19.695312 C 25.859375 19.535156 24.527344 18.6875 23.039062 17.804688 L 20.300781 16.230469 Z M 14.78125 19.453125 "/>
</g>
</svg>
